<svg xmlns="http://www.w3.org/2000/svg" width="1450" height="1536" viewBox="0 0 1450 1536" role="img" aria-labelledby="title desc"><title id="title">AudioLife DB diagram generated from dbdiagram.dbml</title><desc id="desc">Database schema tables and references imported from dbdiagram.dbml.</desc><defs><marker id="arrow" markerWidth="10" markerHeight="8" refX="9" refY="4" orient="auto" markerUnits="strokeWidth"><path d="M0,0 L10,4 L0,8 z" fill="#64748b" /></marker><filter id="shadow" x="-12%" y="-12%" width="124%" height="130%"><feDropShadow dx="0" dy="7" stdDeviation="7" flood-color="#0f172a" flood-opacity="0.12"/></filter></defs><rect width="100%" height="100%" fill="#f8fafc"/><text x="34" y="24" fill="#0f172a" font-size="18" font-weight="800">AudioLife Database Diagram</text><text x="314" y="24" fill="#64748b" font-size="12">Generated from dbdiagram.dbml</text><path d="M 548 373 C 548 217.5, 194 217.5, 194 62" fill="none" stroke="#94a3b8" stroke-width="1.4" stroke-dasharray="5 5" marker-end="url(#arrow)" opacity="0.7"><title>Location.CategoryId -> Category.Id</title></path>
<path d="M 902 396 C 902 229, 548 229, 548 62" fill="none" stroke="#94a3b8" stroke-width="1.4" stroke-dasharray="5 5" marker-end="url(#arrow)" opacity="0.7"><title>AudioGuide.LocationId -> Location.Id</title></path>
<path d="M 1256 235 C 1256 148.5, 902 148.5, 902 62" fill="none" stroke="#94a3b8" stroke-width="1.4" stroke-dasharray="5 5" marker-end="url(#arrow)" opacity="0.7"><title>AudioScriptSegment.AudioGuideId -> AudioGuide.Id</title></path>
<path d="M 548 549 C 548 485.5, 194 485.5, 194 422" fill="none" stroke="#94a3b8" stroke-width="1.4" stroke-dasharray="5 5" marker-end="url(#arrow)" opacity="0.7"><title>TourLocation.TourId -> Tour.Id</title></path>
<path d="M 548 549 C 548 305.5, 548 305.5, 548 62" fill="none" stroke="#94a3b8" stroke-width="1.4" stroke-dasharray="5 5" marker-end="url(#arrow)" opacity="0.7"><title>TourLocation.LocationId -> Location.Id</title></path>
<path d="M 1256 549 C 1256 305.5, 548 305.5, 548 62" fill="none" stroke="#94a3b8" stroke-width="1.4" stroke-dasharray="5 5" marker-end="url(#arrow)" opacity="0.7"><title>PoiAdminLocationAssignment.LocationId -> Location.Id</title></path>
<path d="M 1256 549 C 1256 485.5, 902 485.5, 902 422" fill="none" stroke="#94a3b8" stroke-width="1.4" stroke-dasharray="5 5" marker-end="url(#arrow)" opacity="0.7"><title>PoiAdminLocationAssignment.Username -> AuthUserAccount.Username</title></path>
<path d="M 194 1208 C 194 635, 548 635, 548 62" fill="none" stroke="#94a3b8" stroke-width="1.4" stroke-dasharray="5 5" marker-end="url(#arrow)" opacity="0.7"><title>PoiChangeRequest.LocationId -> Location.Id</title></path>
<path d="M 548 1116 C 548 949, 902 949, 902 782" fill="none" stroke="#94a3b8" stroke-width="1.4" stroke-dasharray="5 5" marker-end="url(#arrow)" opacity="0.7"><title>ListeningHistory.UserId -> AppUser.Id</title></path>
<path d="M 548 1116 C 548 589, 902 589, 902 62" fill="none" stroke="#94a3b8" stroke-width="1.4" stroke-dasharray="5 5" marker-end="url(#arrow)" opacity="0.7"><title>ListeningHistory.AudioGuideId -> AudioGuide.Id</title></path>
<path d="M 548 1116 C 548 589, 548 589, 548 62" fill="none" stroke="#94a3b8" stroke-width="1.4" stroke-dasharray="5 5" marker-end="url(#arrow)" opacity="0.7"><title>ListeningHistory.LocationId -> Location.Id</title></path>
<path d="M 548 1453 C 548 1117.5, 902 1117.5, 902 782" fill="none" stroke="#94a3b8" stroke-width="1.4" stroke-dasharray="5 5" marker-end="url(#arrow)" opacity="0.7"><title>UserSubscription.UserId -> AppUser.Id</title></path>
<path d="M 548 1453 C 548 1297.5, 194 1297.5, 194 1142" fill="none" stroke="#94a3b8" stroke-width="1.4" stroke-dasharray="5 5" marker-end="url(#arrow)" opacity="0.7"><title>UserSubscription.PackageId -> PaymentPackage.Id</title></path>
<path d="M 902 1430 C 902 1106, 902 1106, 902 782" fill="none" stroke="#94a3b8" stroke-width="1.4" stroke-dasharray="5 5" marker-end="url(#arrow)" opacity="0.7"><title>UserAppSession.UserId -> AppUser.Id</title></path>
<path d="M 1256 1047 C 1256 914.5, 902 914.5, 902 782" fill="none" stroke="#94a3b8" stroke-width="1.4" stroke-dasharray="5 5" marker-end="url(#arrow)" opacity="0.7"><title>AppUserActivityLog.UserId -> AppUser.Id</title></path>
<path d="M 1256 1384 C 1256 1263, 194 1263, 194 1142" fill="none" stroke="#94a3b8" stroke-width="1.4" stroke-dasharray="5 5" marker-end="url(#arrow)" opacity="0.7"><title>PoiRegistrationRequest.PackageId -> PaymentPackage.Id</title></path><g filter="url(#shadow)"><rect x="34" y="62" width="320" height="150" rx="10" fill="#ffffff" stroke="#cbd5e1"/><path d="M 34 72 Q 34 62 44 62 H 344 Q 354 62 354 72 V 102 H 34 Z" fill="#0f172a"/><text x="50" y="88" fill="#ffffff" font-size="15" font-weight="800">Category</text><g><text x="50" y="122" fill="#0f766e" font-size="13" font-weight="700">Id</text><text x="210" y="122" fill="#64748b" font-size="12">String</text><rect x="300" y="108" width="34" height="18" rx="5" fill="#ccfbf1"/><text x="317" y="122" text-anchor="middle" fill="#0f766e" font-size="10" font-weight="800">PK</text></g>
<g><text x="50" y="145" fill="#334155" font-size="13" font-weight="500">Name</text><text x="210" y="145" fill="#64748b" font-size="12">String</text></g>
<g><text x="50" y="168" fill="#334155" font-size="13" font-weight="500">Icon</text><text x="210" y="168" fill="#64748b" font-size="12">String</text></g>
<g><text x="50" y="191" fill="#334155" font-size="13" font-weight="500">Description</text><text x="210" y="191" fill="#64748b" font-size="12">String</text></g></g>
<g filter="url(#shadow)"><rect x="388" y="62" width="320" height="311" rx="10" fill="#ffffff" stroke="#cbd5e1"/><path d="M 388 72 Q 388 62 398 62 H 698 Q 708 62 708 72 V 102 H 388 Z" fill="#0f172a"/><text x="404" y="88" fill="#ffffff" font-size="15" font-weight="800">Location</text><g><text x="404" y="122" fill="#0f766e" font-size="13" font-weight="700">Id</text><text x="564" y="122" fill="#64748b" font-size="12">String</text><rect x="654" y="108" width="34" height="18" rx="5" fill="#ccfbf1"/><text x="671" y="122" text-anchor="middle" fill="#0f766e" font-size="10" font-weight="800">PK</text></g>
<g><text x="404" y="145" fill="#334155" font-size="13" font-weight="500">Name</text><text x="564" y="145" fill="#64748b" font-size="12">String</text></g>
<g><text x="404" y="168" fill="#334155" font-size="13" font-weight="500">Description</text><text x="564" y="168" fill="#64748b" font-size="12">String</text></g>
<g><text x="404" y="191" fill="#334155" font-size="13" font-weight="500">ImageUrl</text><text x="564" y="191" fill="#64748b" font-size="12">String</text></g>
<g><text x="404" y="214" fill="#334155" font-size="13" font-weight="500">Address</text><text x="564" y="214" fill="#64748b" font-size="12">String</text></g>
<g><text x="404" y="237" fill="#334155" font-size="13" font-weight="500">Latitude</text><text x="564" y="237" fill="#64748b" font-size="12">Float</text></g>
<g><text x="404" y="260" fill="#334155" font-size="13" font-weight="500">Longitude</text><text x="564" y="260" fill="#64748b" font-size="12">Float</text></g>
<g><text x="404" y="283" fill="#334155" font-size="13" font-weight="500">Priority</text><text x="564" y="283" fill="#64748b" font-size="12">Int</text></g>
<g><text x="404" y="306" fill="#334155" font-size="13" font-weight="500">DetectionRadiusMeters</text><text x="564" y="306" fill="#64748b" font-size="12">Float</text></g>
<g><text x="404" y="329" fill="#334155" font-size="13" font-weight="500">Duration</text><text x="564" y="329" fill="#64748b" font-size="12">Int</text></g>
<g><text x="404" y="352" fill="#334155" font-size="13" font-weight="500">CategoryId</text><text x="564" y="352" fill="#64748b" font-size="12">String</text></g></g>
<g filter="url(#shadow)"><rect x="742" y="62" width="320" height="334" rx="10" fill="#ffffff" stroke="#cbd5e1"/><path d="M 742 72 Q 742 62 752 62 H 1052 Q 1062 62 1062 72 V 102 H 742 Z" fill="#0f172a"/><text x="758" y="88" fill="#ffffff" font-size="15" font-weight="800">AudioGuide</text><g><text x="758" y="122" fill="#0f766e" font-size="13" font-weight="700">Id</text><text x="918" y="122" fill="#64748b" font-size="12">String</text><rect x="1008" y="108" width="34" height="18" rx="5" fill="#ccfbf1"/><text x="1025" y="122" text-anchor="middle" fill="#0f766e" font-size="10" font-weight="800">PK</text></g>
<g><text x="758" y="145" fill="#334155" font-size="13" font-weight="500">Title</text><text x="918" y="145" fill="#64748b" font-size="12">String</text></g>
<g><text x="758" y="168" fill="#334155" font-size="13" font-weight="500">Description</text><text x="918" y="168" fill="#64748b" font-size="12">String</text></g>
<g><text x="758" y="191" fill="#334155" font-size="13" font-weight="500">AudioUrl</text><text x="918" y="191" fill="#64748b" font-size="12">String</text></g>
<g><text x="758" y="214" fill="#334155" font-size="13" font-weight="500">CloudinaryAudioUrl</text><text x="918" y="214" fill="#64748b" font-size="12">String</text></g>
<g><text x="758" y="237" fill="#334155" font-size="13" font-weight="500">CloudinaryPublicId</text><text x="918" y="237" fill="#64748b" font-size="12">String</text></g>
<g><text x="758" y="260" fill="#334155" font-size="13" font-weight="500">TranscriptText</text><text x="918" y="260" fill="#64748b" font-size="12">String</text></g>
<g><text x="758" y="283" fill="#334155" font-size="13" font-weight="500">Duration</text><text x="918" y="283" fill="#64748b" font-size="12">Int</text></g>
<g><text x="758" y="306" fill="#334155" font-size="13" font-weight="500">LocationId</text><text x="918" y="306" fill="#64748b" font-size="12">String</text></g>
<g><text x="758" y="329" fill="#334155" font-size="13" font-weight="500">Language</text><text x="918" y="329" fill="#64748b" font-size="12">String</text></g>
<g><text x="758" y="352" fill="#334155" font-size="13" font-weight="500">GeneratedFromTts</text><text x="918" y="352" fill="#64748b" font-size="12">Boolean</text></g>
<g><text x="758" y="375" fill="#334155" font-size="13" font-weight="500">TtsSourceText</text><text x="918" y="375" fill="#64748b" font-size="12">String</text></g></g>
<g filter="url(#shadow)"><rect x="1096" y="62" width="320" height="173" rx="10" fill="#ffffff" stroke="#cbd5e1"/><path d="M 1096 72 Q 1096 62 1106 62 H 1406 Q 1416 62 1416 72 V 102 H 1096 Z" fill="#0f172a"/><text x="1112" y="88" fill="#ffffff" font-size="15" font-weight="800">AudioScriptSegment</text><g><text x="1112" y="122" fill="#0f766e" font-size="13" font-weight="700">Id</text><text x="1272" y="122" fill="#64748b" font-size="12">Int</text><rect x="1362" y="108" width="34" height="18" rx="5" fill="#ccfbf1"/><text x="1379" y="122" text-anchor="middle" fill="#0f766e" font-size="10" font-weight="800">PK</text></g>
<g><text x="1112" y="145" fill="#334155" font-size="13" font-weight="500">AudioGuideId</text><text x="1272" y="145" fill="#64748b" font-size="12">String</text></g>
<g><text x="1112" y="168" fill="#334155" font-size="13" font-weight="500">StartTimeSeconds</text><text x="1272" y="168" fill="#64748b" font-size="12">Int</text></g>
<g><text x="1112" y="191" fill="#334155" font-size="13" font-weight="500">EndTimeSeconds</text><text x="1272" y="191" fill="#64748b" font-size="12">Int</text></g>
<g><text x="1112" y="214" fill="#334155" font-size="13" font-weight="500">ScriptText</text><text x="1272" y="214" fill="#64748b" font-size="12">String</text></g></g>
<g filter="url(#shadow)"><rect x="34" y="422" width="320" height="219" rx="10" fill="#ffffff" stroke="#cbd5e1"/><path d="M 34 432 Q 34 422 44 422 H 344 Q 354 422 354 432 V 462 H 34 Z" fill="#0f172a"/><text x="50" y="448" fill="#ffffff" font-size="15" font-weight="800">Tour</text><g><text x="50" y="482" fill="#0f766e" font-size="13" font-weight="700">Id</text><text x="210" y="482" fill="#64748b" font-size="12">String</text><rect x="300" y="468" width="34" height="18" rx="5" fill="#ccfbf1"/><text x="317" y="482" text-anchor="middle" fill="#0f766e" font-size="10" font-weight="800">PK</text></g>
<g><text x="50" y="505" fill="#334155" font-size="13" font-weight="500">Name</text><text x="210" y="505" fill="#64748b" font-size="12">String</text></g>
<g><text x="50" y="528" fill="#334155" font-size="13" font-weight="500">Description</text><text x="210" y="528" fill="#64748b" font-size="12">String</text></g>
<g><text x="50" y="551" fill="#334155" font-size="13" font-weight="500">ImageUrl</text><text x="210" y="551" fill="#64748b" font-size="12">String</text></g>
<g><text x="50" y="574" fill="#334155" font-size="13" font-weight="500">Duration</text><text x="210" y="574" fill="#64748b" font-size="12">Int</text></g>
<g><text x="50" y="597" fill="#334155" font-size="13" font-weight="500">Price</text><text x="210" y="597" fill="#64748b" font-size="12">Decimal</text></g>
<g><text x="50" y="620" fill="#334155" font-size="13" font-weight="500">IsFeatured</text><text x="210" y="620" fill="#64748b" font-size="12">Boolean</text></g></g>
<g filter="url(#shadow)"><rect x="388" y="422" width="320" height="127" rx="10" fill="#ffffff" stroke="#cbd5e1"/><path d="M 388 432 Q 388 422 398 422 H 698 Q 708 422 708 432 V 462 H 388 Z" fill="#0f172a"/><text x="404" y="448" fill="#ffffff" font-size="15" font-weight="800">TourLocation</text><g><text x="404" y="482" fill="#334155" font-size="13" font-weight="500">TourId</text><text x="564" y="482" fill="#64748b" font-size="12">String</text></g>
<g><text x="404" y="505" fill="#334155" font-size="13" font-weight="500">LocationId</text><text x="564" y="505" fill="#64748b" font-size="12">String</text></g>
<g><text x="404" y="528" fill="#334155" font-size="13" font-weight="500">SortOrder</text><text x="564" y="528" fill="#64748b" font-size="12">Int</text></g></g>
<g filter="url(#shadow)"><rect x="742" y="422" width="320" height="219" rx="10" fill="#ffffff" stroke="#cbd5e1"/><path d="M 742 432 Q 742 422 752 422 H 1052 Q 1062 422 1062 432 V 462 H 742 Z" fill="#0f172a"/><text x="758" y="448" fill="#ffffff" font-size="15" font-weight="800">AuthUserAccount</text><g><text x="758" y="482" fill="#0f766e" font-size="13" font-weight="700">Id</text><text x="918" y="482" fill="#64748b" font-size="12">Int</text><rect x="1008" y="468" width="34" height="18" rx="5" fill="#ccfbf1"/><text x="1025" y="482" text-anchor="middle" fill="#0f766e" font-size="10" font-weight="800">PK</text></g>
<g><text x="758" y="505" fill="#334155" font-size="13" font-weight="500">Username</text><text x="918" y="505" fill="#64748b" font-size="12">String</text></g>
<g><text x="758" y="528" fill="#334155" font-size="13" font-weight="500">Password</text><text x="918" y="528" fill="#64748b" font-size="12">String</text></g>
<g><text x="758" y="551" fill="#334155" font-size="13" font-weight="500">DisplayName</text><text x="918" y="551" fill="#64748b" font-size="12">String</text></g>
<g><text x="758" y="574" fill="#334155" font-size="13" font-weight="500">Role</text><text x="918" y="574" fill="#64748b" font-size="12">String</text></g>
<g><text x="758" y="597" fill="#334155" font-size="13" font-weight="500">IsActive</text><text x="918" y="597" fill="#64748b" font-size="12">Boolean</text></g>
<g><text x="758" y="620" fill="#334155" font-size="13" font-weight="500">CreatedAtUtc</text><text x="918" y="620" fill="#64748b" font-size="12">DateTime</text></g></g>
<g filter="url(#shadow)"><rect x="1096" y="422" width="320" height="127" rx="10" fill="#ffffff" stroke="#cbd5e1"/><path d="M 1096 432 Q 1096 422 1106 422 H 1406 Q 1416 422 1416 432 V 462 H 1096 Z" fill="#0f172a"/><text x="1112" y="448" fill="#ffffff" font-size="15" font-weight="800">PoiAdminLocationAssignment</text><g><text x="1112" y="482" fill="#0f766e" font-size="13" font-weight="700">Id</text><text x="1272" y="482" fill="#64748b" font-size="12">Int</text><rect x="1362" y="468" width="34" height="18" rx="5" fill="#ccfbf1"/><text x="1379" y="482" text-anchor="middle" fill="#0f766e" font-size="10" font-weight="800">PK</text></g>
<g><text x="1112" y="505" fill="#334155" font-size="13" font-weight="500">Username</text><text x="1272" y="505" fill="#64748b" font-size="12">String</text></g>
<g><text x="1112" y="528" fill="#334155" font-size="13" font-weight="500">LocationId</text><text x="1272" y="528" fill="#64748b" font-size="12">String</text></g></g>
<g filter="url(#shadow)"><rect x="34" y="782" width="320" height="426" rx="10" fill="#ffffff" stroke="#cbd5e1"/><path d="M 34 792 Q 34 782 44 782 H 344 Q 354 782 354 792 V 822 H 34 Z" fill="#0f172a"/><text x="50" y="808" fill="#ffffff" font-size="15" font-weight="800">PoiChangeRequest</text><g><text x="50" y="842" fill="#0f766e" font-size="13" font-weight="700">Id</text><text x="210" y="842" fill="#64748b" font-size="12">Guid</text><rect x="300" y="828" width="34" height="18" rx="5" fill="#ccfbf1"/><text x="317" y="842" text-anchor="middle" fill="#0f766e" font-size="10" font-weight="800">PK</text></g>
<g><text x="50" y="865" fill="#334155" font-size="13" font-weight="500">SubmittedByUsername</text><text x="210" y="865" fill="#64748b" font-size="12">String</text></g>
<g><text x="50" y="888" fill="#334155" font-size="13" font-weight="500">SubmittedByName</text><text x="210" y="888" fill="#64748b" font-size="12">String</text></g>
<g><text x="50" y="911" fill="#334155" font-size="13" font-weight="500">LocationId</text><text x="210" y="911" fill="#64748b" font-size="12">String</text></g>
<g><text x="50" y="934" fill="#334155" font-size="13" font-weight="500">LocationName</text><text x="210" y="934" fill="#64748b" font-size="12">String</text></g>
<g><text x="50" y="957" fill="#334155" font-size="13" font-weight="500">Topic</text><text x="210" y="957" fill="#64748b" font-size="12">String</text></g>
<g><text x="50" y="980" fill="#334155" font-size="13" font-weight="500">Title</text><text x="210" y="980" fill="#64748b" font-size="12">String</text></g>
<g><text x="50" y="1003" fill="#334155" font-size="13" font-weight="500">Details</text><text x="210" y="1003" fill="#64748b" font-size="12">String</text></g>
<g><text x="50" y="1026" fill="#334155" font-size="13" font-weight="500">TargetType</text><text x="210" y="1026" fill="#64748b" font-size="12">String</text></g>
<g><text x="50" y="1049" fill="#334155" font-size="13" font-weight="500">TargetEntityId</text><text x="210" y="1049" fill="#64748b" font-size="12">String</text></g>
<g><text x="50" y="1072" fill="#334155" font-size="13" font-weight="500">ChangeSetJson</text><text x="210" y="1072" fill="#64748b" font-size="12">String</text></g>
<g><text x="50" y="1095" fill="#334155" font-size="13" font-weight="500">Status</text><text x="210" y="1095" fill="#64748b" font-size="12">String</text></g>
<g><text x="50" y="1118" fill="#334155" font-size="13" font-weight="500">SubmittedAtUtc</text><text x="210" y="1118" fill="#64748b" font-size="12">DateTime</text></g>
<g><text x="50" y="1141" fill="#334155" font-size="13" font-weight="500">UpdatedAtUtc</text><text x="210" y="1141" fill="#64748b" font-size="12">DateTime</text></g>
<g><text x="50" y="1164" fill="#334155" font-size="13" font-weight="500">UpdatedBy</text><text x="210" y="1164" fill="#64748b" font-size="12">String</text></g>
<g><text x="50" y="1187" fill="#334155" font-size="13" font-weight="500">ReviewNote</text><text x="210" y="1187" fill="#64748b" font-size="12">String</text></g></g>
<g filter="url(#shadow)"><rect x="388" y="782" width="320" height="334" rx="10" fill="#ffffff" stroke="#cbd5e1"/><path d="M 388 792 Q 388 782 398 782 H 698 Q 708 782 708 792 V 822 H 388 Z" fill="#0f172a"/><text x="404" y="808" fill="#ffffff" font-size="15" font-weight="800">ListeningHistory</text><g><text x="404" y="842" fill="#0f766e" font-size="13" font-weight="700">Id</text><text x="564" y="842" fill="#64748b" font-size="12">String</text><rect x="654" y="828" width="34" height="18" rx="5" fill="#ccfbf1"/><text x="671" y="842" text-anchor="middle" fill="#0f766e" font-size="10" font-weight="800">PK</text></g>
<g><text x="404" y="865" fill="#334155" font-size="13" font-weight="500">UserId</text><text x="564" y="865" fill="#64748b" font-size="12">Guid</text></g>
<g><text x="404" y="888" fill="#334155" font-size="13" font-weight="500">AudioGuideId</text><text x="564" y="888" fill="#64748b" font-size="12">String</text></g>
<g><text x="404" y="911" fill="#334155" font-size="13" font-weight="500">LocationId</text><text x="564" y="911" fill="#64748b" font-size="12">String</text></g>
<g><text x="404" y="934" fill="#334155" font-size="13" font-weight="500">AudioTitle</text><text x="564" y="934" fill="#64748b" font-size="12">String</text></g>
<g><text x="404" y="957" fill="#334155" font-size="13" font-weight="500">LocationName</text><text x="564" y="957" fill="#64748b" font-size="12">String</text></g>
<g><text x="404" y="980" fill="#334155" font-size="13" font-weight="500">LocationImageUrl</text><text x="564" y="980" fill="#64748b" font-size="12">String</text></g>
<g><text x="404" y="1003" fill="#334155" font-size="13" font-weight="500">AudioDuration</text><text x="564" y="1003" fill="#64748b" font-size="12">Int</text></g>
<g><text x="404" y="1026" fill="#334155" font-size="13" font-weight="500">Progress</text><text x="564" y="1026" fill="#64748b" font-size="12">Decimal</text></g>
<g><text x="404" y="1049" fill="#334155" font-size="13" font-weight="500">ListenedSeconds</text><text x="564" y="1049" fill="#64748b" font-size="12">Int</text></g>
<g><text x="404" y="1072" fill="#334155" font-size="13" font-weight="500">IsCompleted</text><text x="564" y="1072" fill="#64748b" font-size="12">Boolean</text></g>
<g><text x="404" y="1095" fill="#334155" font-size="13" font-weight="500">LastListenedAtUtc</text><text x="564" y="1095" fill="#64748b" font-size="12">DateTime</text></g></g>
<g filter="url(#shadow)"><rect x="742" y="782" width="320" height="265" rx="10" fill="#ffffff" stroke="#cbd5e1"/><path d="M 742 792 Q 742 782 752 782 H 1052 Q 1062 782 1062 792 V 822 H 742 Z" fill="#0f172a"/><text x="758" y="808" fill="#ffffff" font-size="15" font-weight="800">AppUser</text><g><text x="758" y="842" fill="#0f766e" font-size="13" font-weight="700">Id</text><text x="918" y="842" fill="#64748b" font-size="12">Guid</text><rect x="1008" y="828" width="34" height="18" rx="5" fill="#ccfbf1"/><text x="1025" y="842" text-anchor="middle" fill="#0f766e" font-size="10" font-weight="800">PK</text></g>
<g><text x="758" y="865" fill="#334155" font-size="13" font-weight="500">QrCodeValue</text><text x="918" y="865" fill="#64748b" font-size="12">String</text><rect x="1008" y="851" width="34" height="18" rx="5" fill="#dbeafe"/><text x="1025" y="865" text-anchor="middle" fill="#1d4ed8" font-size="10" font-weight="800">UQ</text></g>
<g><text x="758" y="888" fill="#334155" font-size="13" font-weight="500">DeviceId</text><text x="918" y="888" fill="#64748b" font-size="12">String</text><rect x="1008" y="874" width="34" height="18" rx="5" fill="#dbeafe"/><text x="1025" y="888" text-anchor="middle" fill="#1d4ed8" font-size="10" font-weight="800">UQ</text></g>
<g><text x="758" y="911" fill="#334155" font-size="13" font-weight="500">Status</text><text x="918" y="911" fill="#64748b" font-size="12">String</text></g>
<g><text x="758" y="934" fill="#334155" font-size="13" font-weight="500">CreatedAtUtc</text><text x="918" y="934" fill="#64748b" font-size="12">DateTime</text></g>
<g><text x="758" y="957" fill="#334155" font-size="13" font-weight="500">LastSeenAtUtc</text><text x="918" y="957" fill="#64748b" font-size="12">DateTime</text></g>
<g><text x="758" y="980" fill="#334155" font-size="13" font-weight="500">CurrentActivity</text><text x="918" y="980" fill="#64748b" font-size="12">String</text></g>
<g><text x="758" y="1003" fill="#334155" font-size="13" font-weight="500">CurrentActivityAtUtc</text><text x="918" y="1003" fill="#64748b" font-size="12">DateTime</text></g>
<g><text x="758" y="1026" fill="#334155" font-size="13" font-weight="500">IsDeleted</text><text x="918" y="1026" fill="#64748b" font-size="12">Boolean</text></g></g>
<g filter="url(#shadow)"><rect x="1096" y="782" width="320" height="265" rx="10" fill="#ffffff" stroke="#cbd5e1"/><path d="M 1096 792 Q 1096 782 1106 782 H 1406 Q 1416 782 1416 792 V 822 H 1096 Z" fill="#0f172a"/><text x="1112" y="808" fill="#ffffff" font-size="15" font-weight="800">AppUserActivityLog</text><g><text x="1112" y="842" fill="#0f766e" font-size="13" font-weight="700">Id</text><text x="1272" y="842" fill="#64748b" font-size="12">Guid</text><rect x="1362" y="828" width="34" height="18" rx="5" fill="#ccfbf1"/><text x="1379" y="842" text-anchor="middle" fill="#0f766e" font-size="10" font-weight="800">PK</text></g>
<g><text x="1112" y="865" fill="#334155" font-size="13" font-weight="500">UserId</text><text x="1272" y="865" fill="#64748b" font-size="12">Guid</text></g>
<g><text x="1112" y="888" fill="#334155" font-size="13" font-weight="500">DeviceId</text><text x="1272" y="888" fill="#64748b" font-size="12">String</text></g>
<g><text x="1112" y="911" fill="#334155" font-size="13" font-weight="500">SessionToken</text><text x="1272" y="911" fill="#64748b" font-size="12">String</text></g>
<g><text x="1112" y="934" fill="#334155" font-size="13" font-weight="500">ActivityName</text><text x="1272" y="934" fill="#64748b" font-size="12">String</text></g>
<g><text x="1112" y="957" fill="#334155" font-size="13" font-weight="500">ActivityContext</text><text x="1272" y="957" fill="#64748b" font-size="12">String</text></g>
<g><text x="1112" y="980" fill="#334155" font-size="13" font-weight="500">Route</text><text x="1272" y="980" fill="#64748b" font-size="12">String</text></g>
<g><text x="1112" y="1003" fill="#334155" font-size="13" font-weight="500">IsForeground</text><text x="1272" y="1003" fill="#64748b" font-size="12">Boolean</text></g>
<g><text x="1112" y="1026" fill="#334155" font-size="13" font-weight="500">LoggedAtUtc</text><text x="1272" y="1026" fill="#64748b" font-size="12">DateTime</text></g></g>
<g filter="url(#shadow)"><rect x="34" y="1142" width="320" height="242" rx="10" fill="#ffffff" stroke="#cbd5e1"/><path d="M 34 1152 Q 34 1142 44 1142 H 344 Q 354 1142 354 1152 V 1182 H 34 Z" fill="#0f172a"/><text x="50" y="1168" fill="#ffffff" font-size="15" font-weight="800">PaymentPackage</text><g><text x="50" y="1202" fill="#0f766e" font-size="13" font-weight="700">Id</text><text x="210" y="1202" fill="#64748b" font-size="12">String</text><rect x="300" y="1188" width="34" height="18" rx="5" fill="#ccfbf1"/><text x="317" y="1202" text-anchor="middle" fill="#0f766e" font-size="10" font-weight="800">PK</text></g>
<g><text x="50" y="1225" fill="#334155" font-size="13" font-weight="500">Name</text><text x="210" y="1225" fill="#64748b" font-size="12">String</text></g>
<g><text x="50" y="1248" fill="#334155" font-size="13" font-weight="500">Description</text><text x="210" y="1248" fill="#64748b" font-size="12">String</text></g>
<g><text x="50" y="1271" fill="#334155" font-size="13" font-weight="500">Price</text><text x="210" y="1271" fill="#64748b" font-size="12">Decimal</text></g>
<g><text x="50" y="1294" fill="#334155" font-size="13" font-weight="500">Currency</text><text x="210" y="1294" fill="#64748b" font-size="12">String</text></g>
<g><text x="50" y="1317" fill="#334155" font-size="13" font-weight="500">DurationDays</text><text x="210" y="1317" fill="#64748b" font-size="12">Int</text></g>
<g><text x="50" y="1340" fill="#334155" font-size="13" font-weight="500">IsActive</text><text x="210" y="1340" fill="#64748b" font-size="12">Boolean</text></g>
<g><text x="50" y="1363" fill="#334155" font-size="13" font-weight="500">CreatedAtUtc</text><text x="210" y="1363" fill="#64748b" font-size="12">DateTime</text></g></g>
<g filter="url(#shadow)"><rect x="388" y="1142" width="320" height="311" rx="10" fill="#ffffff" stroke="#cbd5e1"/><path d="M 388 1152 Q 388 1142 398 1142 H 698 Q 708 1142 708 1152 V 1182 H 388 Z" fill="#0f172a"/><text x="404" y="1168" fill="#ffffff" font-size="15" font-weight="800">UserSubscription</text><g><text x="404" y="1202" fill="#0f766e" font-size="13" font-weight="700">Id</text><text x="564" y="1202" fill="#64748b" font-size="12">Guid</text><rect x="654" y="1188" width="34" height="18" rx="5" fill="#ccfbf1"/><text x="671" y="1202" text-anchor="middle" fill="#0f766e" font-size="10" font-weight="800">PK</text></g>
<g><text x="404" y="1225" fill="#334155" font-size="13" font-weight="500">UserId</text><text x="564" y="1225" fill="#64748b" font-size="12">Guid</text></g>
<g><text x="404" y="1248" fill="#334155" font-size="13" font-weight="500">AuthUserId</text><text x="564" y="1248" fill="#64748b" font-size="12">Int</text></g>
<g><text x="404" y="1271" fill="#334155" font-size="13" font-weight="500">PackageId</text><text x="564" y="1271" fill="#64748b" font-size="12">String</text></g>
<g><text x="404" y="1294" fill="#334155" font-size="13" font-weight="500">Status</text><text x="564" y="1294" fill="#64748b" font-size="12">String</text></g>
<g><text x="404" y="1317" fill="#334155" font-size="13" font-weight="500">PurchasedAtUtc</text><text x="564" y="1317" fill="#64748b" font-size="12">DateTime</text></g>
<g><text x="404" y="1340" fill="#334155" font-size="13" font-weight="500">StartsAtUtc</text><text x="564" y="1340" fill="#64748b" font-size="12">DateTime</text></g>
<g><text x="404" y="1363" fill="#334155" font-size="13" font-weight="500">ExpiresAtUtc</text><text x="564" y="1363" fill="#64748b" font-size="12">DateTime</text></g>
<g><text x="404" y="1386" fill="#334155" font-size="13" font-weight="500">PaymentReference</text><text x="564" y="1386" fill="#64748b" font-size="12">String</text></g>
<g><text x="404" y="1409" fill="#334155" font-size="13" font-weight="500">PaidAmount</text><text x="564" y="1409" fill="#64748b" font-size="12">Decimal</text></g>
<g><text x="404" y="1432" fill="#334155" font-size="13" font-weight="500">LastVerifiedAtUtc</text><text x="564" y="1432" fill="#64748b" font-size="12">DateTime</text></g></g>
<g filter="url(#shadow)"><rect x="742" y="1142" width="320" height="288" rx="10" fill="#ffffff" stroke="#cbd5e1"/><path d="M 742 1152 Q 742 1142 752 1142 H 1052 Q 1062 1142 1062 1152 V 1182 H 742 Z" fill="#0f172a"/><text x="758" y="1168" fill="#ffffff" font-size="15" font-weight="800">UserAppSession</text><g><text x="758" y="1202" fill="#0f766e" font-size="13" font-weight="700">Id</text><text x="918" y="1202" fill="#64748b" font-size="12">Guid</text><rect x="1008" y="1188" width="34" height="18" rx="5" fill="#ccfbf1"/><text x="1025" y="1202" text-anchor="middle" fill="#0f766e" font-size="10" font-weight="800">PK</text></g>
<g><text x="758" y="1225" fill="#334155" font-size="13" font-weight="500">UserId</text><text x="918" y="1225" fill="#64748b" font-size="12">Guid</text></g>
<g><text x="758" y="1248" fill="#334155" font-size="13" font-weight="500">DeviceId</text><text x="918" y="1248" fill="#64748b" font-size="12">String</text></g>
<g><text x="758" y="1271" fill="#334155" font-size="13" font-weight="500">TokenValue</text><text x="918" y="1271" fill="#64748b" font-size="12">String</text><rect x="1008" y="1257" width="34" height="18" rx="5" fill="#dbeafe"/><text x="1025" y="1271" text-anchor="middle" fill="#1d4ed8" font-size="10" font-weight="800">UQ</text></g>
<g><text x="758" y="1294" fill="#334155" font-size="13" font-weight="500">RefreshToken</text><text x="918" y="1294" fill="#64748b" font-size="12">String</text></g>
<g><text x="758" y="1317" fill="#334155" font-size="13" font-weight="500">IssuedAtUtc</text><text x="918" y="1317" fill="#64748b" font-size="12">DateTime</text></g>
<g><text x="758" y="1340" fill="#334155" font-size="13" font-weight="500">ExpiresAtUtc</text><text x="918" y="1340" fill="#64748b" font-size="12">DateTime</text></g>
<g><text x="758" y="1363" fill="#334155" font-size="13" font-weight="500">LastValidatedAtUtc</text><text x="918" y="1363" fill="#64748b" font-size="12">DateTime</text></g>
<g><text x="758" y="1386" fill="#334155" font-size="13" font-weight="500">RevokedAtUtc</text><text x="918" y="1386" fill="#64748b" font-size="12">DateTime</text></g>
<g><text x="758" y="1409" fill="#334155" font-size="13" font-weight="500">IsActive</text><text x="918" y="1409" fill="#64748b" font-size="12">Boolean</text></g></g>
<g filter="url(#shadow)"><rect x="1096" y="1142" width="320" height="242" rx="10" fill="#ffffff" stroke="#cbd5e1"/><path d="M 1096 1152 Q 1096 1142 1106 1142 H 1406 Q 1416 1142 1416 1152 V 1182 H 1096 Z" fill="#0f172a"/><text x="1112" y="1168" fill="#ffffff" font-size="15" font-weight="800">PoiRegistrationRequest</text><g><text x="1112" y="1202" fill="#0f766e" font-size="13" font-weight="700">Id</text><text x="1272" y="1202" fill="#64748b" font-size="12">Guid</text><rect x="1362" y="1188" width="34" height="18" rx="5" fill="#ccfbf1"/><text x="1379" y="1202" text-anchor="middle" fill="#0f766e" font-size="10" font-weight="800">PK</text></g>
<g><text x="1112" y="1225" fill="#334155" font-size="13" font-weight="500">PackageId</text><text x="1272" y="1225" fill="#64748b" font-size="12">String</text></g>
<g><text x="1112" y="1248" fill="#334155" font-size="13" font-weight="500">Status</text><text x="1272" y="1248" fill="#64748b" font-size="12">String</text></g>
<g><text x="1112" y="1271" fill="#334155" font-size="13" font-weight="500">PaymentReference</text><text x="1272" y="1271" fill="#64748b" font-size="12">String</text></g>
<g><text x="1112" y="1294" fill="#334155" font-size="13" font-weight="500">PaidAtUtc</text><text x="1272" y="1294" fill="#64748b" font-size="12">DateTime</text></g>
<g><text x="1112" y="1317" fill="#334155" font-size="13" font-weight="500">CreatedUsername</text><text x="1272" y="1317" fill="#64748b" font-size="12">String</text></g>
<g><text x="1112" y="1340" fill="#334155" font-size="13" font-weight="500">CreatedAtUtc</text><text x="1272" y="1340" fill="#64748b" font-size="12">DateTime</text></g>
<g><text x="1112" y="1363" fill="#334155" font-size="13" font-weight="500">ExpiresAtUtc</text><text x="1272" y="1363" fill="#64748b" font-size="12">DateTime</text></g></g></svg>
